<mxfile host="app.diagrams.net" modified="2024-01-11T17:29:47.799Z" agent="Mozilla/5.0 (X11; Linux x86_64) AppleWebKit/537.36 (KHTML, like Gecko) Chrome/119.0.0.0 Safari/537.36" version="22.1.18" etag="i5E8jPmxLJydurz2i2YI" type="github">
  <diagram name="PÃ¡gina-1" id="B7x_cHkJMSPSYYwcrzmQ">
    <mxGraphModel>
      <root>
        <mxCell id="0" />
        <mxCell id="1" parent="0" />
      </root>
    </mxGraphModel>
  </diagram>
</mxfile>
